<svg width="132" height="39" viewBox="0 0 132 39" fill="none" xmlns="http://www.w3.org/2000/svg">
<path d="M14.8594 4.875V13.3594H26.4375V18.0938H14.8594V30.6328L11.9297 33.5L9 30.6328V0H27.0938V4.875H14.8594Z" fill="#333F48"/>
<path d="M51.3281 30.6328L50.7656 13.3125L50.5547 6.39844L49.0781 11.0859L45.6797 21.5156H42.0703L39 11.0859L37.7109 6.39844L37.5469 13.1719L37.0312 30.6328H32.1328L33.6328 0H40.1484L42.8438 8.69531L44.1328 13.5938L45.4219 8.97656L48.2578 0H54.8906L56.4141 30.6328H51.3281Z" fill="#333F48"/>
<path d="M81.8203 19.3594C81.8203 21.3125 81.5547 23.0312 81.0234 24.5156C80.5078 25.9844 79.7578 27.2109 78.7734 28.1953C77.8047 29.1797 76.6172 29.9219 75.2109 30.4219C73.8047 30.9219 72.2266 31.1719 70.4766 31.1719C68.5078 31.1719 66.8203 30.9219 65.4141 30.4219C64.0078 29.9219 62.8672 29.2031 61.9922 28.2656C61.1172 27.3281 60.4844 26.1875 60.0938 24.8438C59.7031 23.5 59.5078 21.9922 59.5078 20.3203V0H65.2734V19.9688C65.2734 21 65.3594 21.9141 65.5312 22.7109C65.7188 23.5078 66.0312 24.1875 66.4688 24.75C66.9219 25.2969 67.4844 25.7109 68.1562 25.9922C68.8281 26.2734 69.6719 26.4141 70.6875 26.4141C71.6406 26.4141 72.4453 26.2969 73.1016 26.0625C73.7578 25.8125 74.3047 25.4219 74.7422 24.8906C75.1797 24.3438 75.5078 23.6484 75.7266 22.8047C75.9453 21.9609 76.0547 20.9375 76.0547 19.7344V0H81.8203V19.3594Z" fill="#333F48"/>
<path d="M91.7031 17.1953H87.0625V14.9453H94.4531V28.3672H99.125V30.6328H86.5469V28.3672H91.7031V17.1953ZM92.6562 8.36719C92.9583 8.36719 93.2396 8.42448 93.5 8.53906C93.7604 8.64323 93.9844 8.79427 94.1719 8.99219C94.3698 9.1901 94.5208 9.41927 94.625 9.67969C94.7396 9.92969 94.7969 10.2057 94.7969 10.5078C94.7969 10.7995 94.7396 11.0755 94.625 11.3359C94.5208 11.5964 94.3698 11.8255 94.1719 12.0234C93.9844 12.2214 93.7604 12.3776 93.5 12.4922C93.2396 12.5964 92.9583 12.6484 92.6562 12.6484C92.3542 12.6484 92.0729 12.5964 91.8125 12.4922C91.5521 12.3776 91.3229 12.2214 91.125 12.0234C90.9375 11.8255 90.7865 11.5964 90.6719 11.3359C90.5677 11.0755 90.5156 10.7995 90.5156 10.5078C90.5156 10.2057 90.5677 9.92969 90.6719 9.67969C90.7865 9.41927 90.9375 9.1901 91.125 8.99219C91.3229 8.79427 91.5521 8.64323 91.8125 8.53906C92.0729 8.42448 92.3542 8.36719 92.6562 8.36719Z" fill="#333F48"/>
<path d="M106.07 30.6328V0H111.93V25.6875H124.867V30.6328H106.07Z" fill="#333F48"/>
<path d="M131.5 39H0V34H8.98047L11.9258 37L14.8711 34H131.5V39Z" fill="#C8102E"/>
</svg>
